<svg xmlns="http://www.w3.org/2000/svg" width="32.683" height="26.918" viewBox="0 0 32.683 26.918">
  <g id="Group_85041" data-name="Group 85041" transform="translate(-640.665 -456.168)">
    <path id="Path_273617" data-name="Path 273617" d="M147.52,18.564a1.164,1.164,0,0,1-.825-.342,20.29,20.29,0,0,0-28.7,0,1.167,1.167,0,1,1-1.651-1.651,22.477,22.477,0,0,1,16-6.627h0a22.478,22.478,0,0,1,16,6.628,1.168,1.168,0,0,1-.826,1.993" transform="translate(524.66 446.226)" fill="#0c1834"/>
    <path id="Path_273618" data-name="Path 273618" d="M141.684,22.286a1.164,1.164,0,0,1-.826-.342,13.6,13.6,0,0,0-9.681-4.012h0a13.6,13.6,0,0,0-9.681,4.01c-.022.022-.046.043-.069.063a1.167,1.167,0,0,1-1.586-1.712l.023-.022A15.921,15.921,0,0,1,131.176,15.6h0a15.922,15.922,0,0,1,11.332,4.7,1.168,1.168,0,0,1-.825,1.993" transform="translate(525.246 447.173)" fill="#0c1834"/>
    <path id="Path_273619" data-name="Path 273619" d="M125.052,26.006a1.168,1.168,0,0,1-.8-2.023,9.364,9.364,0,0,1,6.633-2.73h0a9.355,9.355,0,0,1,6.661,2.76,1.167,1.167,0,1,1-1.651,1.651,7.036,7.036,0,0,0-5.01-2.076h0a7.043,7.043,0,0,0-5.01,2.075,1.167,1.167,0,0,1-.827.343" transform="translate(525.98 448.121)" fill="#0c1834"/>
    <path id="Path_273620" data-name="Path 273620" d="M130.238,34.066a3.725,3.725,0,1,1,3.725-3.725,3.728,3.728,0,0,1-3.725,3.725m0-5.114a1.389,1.389,0,1,0,1.389,1.389,1.39,1.39,0,0,0-1.389-1.389" transform="translate(526.421 449.02)" fill="#0c1834"/>
  </g>
</svg>
