<svg xmlns="http://www.w3.org/2000/svg" width="99.247" height="98.545" viewBox="0 0 99.247 98.545">
  <g id="Group_62101" data-name="Group 62101" transform="translate(7.94 6.643)">
    <path id="Path_242410" data-name="Path 242410" d="M224.493,390.2c-.062-.345.12-.749.87-1.153,1.983-1.069,19.848-10.682,19.848-10.682a4.493,4.493,0,0,1,3.973,0l43.664,23.5a1.935,1.935,0,0,1,.851.906h0a.684.684,0,0,1,0,.4v1.716a.684.684,0,0,1,0,.4h0a1.555,1.555,0,0,1-.847.829l-1.985,1.068L273,416.8a4.787,4.787,0,0,1-2.151.472h0a3.989,3.989,0,0,1-1.819-.472c-1.985-1.065-43.668-23.5-43.668-23.5s-.971-.525-.87-1.207Z" transform="translate(-217.422 -340.374)" fill="#5a5c75" opacity="0.3" style="mix-blend-mode: multiply;isolation: isolate"/>
    <g id="Group_61891" data-name="Group 61891" transform="translate(5.06 -6.643)">
      <g id="Group_61886" data-name="Group 61886" transform="translate(0)">
        <path id="Path_241766" data-name="Path 241766" d="M305.688,182.034c5.731,2.353,5.369,9.471,5.369,9.471l.915.519a23.25,23.25,0,0,1-3.646,1.088l-5.673-6.347-.444-.085C301.526,183.622,303.155,181.008,305.688,182.034Z" transform="translate(-295.923 -150.223)" fill="#2d313f"/>
        <ellipse id="Ellipse_1464" data-name="Ellipse 1464" cx="5.267" cy="3.339" rx="5.267" ry="3.339" transform="translate(10.373 44.278) rotate(-120)" fill="#3d4154"/>
        <path id="Path_241767" data-name="Path 241767" d="M170.506,260.594a9.96,9.96,0,0,1,3.861,8.264s.666.214,1.55.478a11.981,11.981,0,0,1-4.079,1.185l-5.942-6.609h-.4C164.9,261.8,166.223,257.4,170.506,260.594Z" transform="translate(-121.529 -206.101)" fill="#2d313f"/>
        <ellipse id="Ellipse_1465" data-name="Ellipse 1465" cx="3.632" cy="2.302" rx="3.632" ry="2.302" transform="translate(10.453 42.343) rotate(-120)" fill="#b3b7c4"/>
        <ellipse id="Ellipse_1466" data-name="Ellipse 1466" cx="5.267" cy="3.339" rx="5.267" ry="3.339" transform="translate(48.019 65.854) rotate(-120)" fill="#3d4154"/>
        <ellipse id="Ellipse_1467" data-name="Ellipse 1467" cx="3.632" cy="2.302" rx="3.632" ry="2.302" transform="matrix(-0.5, -0.866, 0.866, -0.5, 48.099, 63.919)" fill="#b3b7c4"/>
        <path id="Path_241768" data-name="Path 241768" d="M84.425,99.217c0-1.85.965-17.695,2.172-19.384S104.011,68.09,106.745,69.3,137.631,86.509,139.8,88.278s10.436,14.84,10.436,14.84c2.051,1.81,6.937,5.851,8.445,7.661a6.006,6.006,0,0,1,1.327,3.982,4.366,4.366,0,0,1,.965,1.991c.121,1.025.121,5.007-.482,6.213s-3.378,3.74-7.058,5.61c0,0-7.3,5.007-13.573,4.343-1.568-.422-3.257-.965-3.257-.965a9.96,9.96,0,0,0-3.861-8.264c-4.283-3.2-5.61,1.207-5.007,3.318-2.654-1.689-28.835-16.529-28.835-16.529s.362-7.118-5.369-9.471c-2.534-1.025-4.162,1.589-3.479,4.645-1.448-.885-6.274-3.74-6.274-3.74v-1.85S83.621,99.538,84.425,99.217Zm45.3,13.432c1.629.724,7.48-1.025,12.065-3.921s6.937-5.145,6.455-6.4-5.851-9.7-6.515-10.487-1.033-.438-1.387,0c-.811,1-5.007,6.133-16.287,9.25a1.214,1.214,0,0,0-.724,1.97C123.877,103.9,128.1,111.925,129.729,112.649ZM91.182,94.431c.965.543,33.359,19.364,34.083,19.666s1.1-.819,0-3.076c-1.228-2.523-3.439-7.42-7.661-10.979S92.69,84.96,91.3,84.236s-1.267.844-1.387,1.689-.6,5.489-.6,6.515S90.217,93.888,91.182,94.431Z" transform="translate(-83.769 -69.196)" fill="#dcdfe5"/>
        <path id="Path_241769" data-name="Path 241769" d="M83.782,132.484v-1.85s-.161-.523.644-.845c0-1.571.7-13.244,1.646-17.755h0a2.3,2.3,0,0,1,2.474,0c1.466.784,27.007,15.021,30.928,18.881s7.239,10.919,8.566,12.729,8.747,8.083,8.747,8.083a8.187,8.187,0,0,0,1.146,2.654c1.086,1.93,3.861,1.991,7.239,1.87s7.42-1.87,11.039-4.947,3.8-5.972,3.8-5.972a4.366,4.366,0,0,1,.965,1.991c.121,1.025.121,5.007-.482,6.213s-3.378,3.74-7.058,5.61c0,0-7.3,5.007-13.573,4.343-1.568-.422-3.257-.965-3.257-.965a9.96,9.96,0,0,0-3.861-8.264c-4.283-3.2-5.61,1.207-5.007,3.318C125.084,155.889,98.9,141.05,98.9,141.05s.362-7.118-5.369-9.471c-2.534-1.025-4.162,1.589-3.479,4.645C88.608,135.339,83.782,132.484,83.782,132.484Zm7.4-7.48c.965.543,33.359,19.364,34.083,19.666s1.1-.819,0-3.077c-1.228-2.523-3.439-7.42-7.661-10.979S92.69,115.533,91.3,114.809s-1.267.844-1.387,1.689-.6,5.489-.6,6.515S90.217,124.461,91.182,125Z" transform="translate(-83.769 -99.768)" fill="#b3b7c4"/>
        <path id="Path_241770" data-name="Path 241770" d="M109.127,244.965c-.6,1.207-3.378,3.74-7.058,5.61,0,0-7.3,5.007-13.573,4.343-1.568-.422-3.257-.965-3.257-.965a10.265,10.265,0,0,0-1.47-5.655,4.427,4.427,0,0,1,2.194-.2,14.823,14.823,0,0,0,7.6,1.508c4.886-.121,10.617-4.042,13.272-6.636s2.775-4.222,2.775-4.222C109.731,239.777,109.731,243.759,109.127,244.965Z" transform="translate(-32.402 -191.197)" fill="#3d4154"/>
        <g id="Group_61879" data-name="Group 61879" transform="translate(0 23.537)">
          <path id="Path_241771" data-name="Path 241771" d="M168.963,159.6c0-.693.135-3.346.368-6.484,6.3,3.657,39.755,23.06,45,26.008,5.791,3.258,7.54,7.36,7.54,7.36a4.426,4.426,0,0,0-2.194.2,9.324,9.324,0,0,0-2.39-2.609c-4.283-3.2-5.61,1.207-5.007,3.318-2.654-1.689-28.835-16.529-28.835-16.529s.362-7.118-5.369-9.471c-2.533-1.025-4.162,1.589-3.479,4.645-1.448-.885-6.274-3.74-6.274-3.74v-1.85S168.158,159.922,168.963,159.6Z" transform="translate(-168.306 -153.117)" fill="#999fb0"/>
        </g>
        <path id="Path_241772" data-name="Path 241772" d="M231.466,225.178a4.524,4.524,0,0,0,.032,2.084c-2.654-1.689-28.835-16.529-28.835-16.529a11.769,11.769,0,0,0-.16-2.2Z" transform="translate(-187.529 -169.451)" fill="#3d4154"/>
        <path id="Path_241773" data-name="Path 241773" d="M168.287,278.217c-.884-.264-1.55-.478-1.55-.478a10.264,10.264,0,0,0-1.47-5.655,4.426,4.426,0,0,1,2.194-.2A16.9,16.9,0,0,1,168.287,278.217Z" transform="translate(-113.9 -214.982)" fill="#5a5c75"/>
        <path id="Path_241774" data-name="Path 241774" d="M91.37,249.61c4.886-.121,10.617-4.042,13.272-6.636s2.775-4.222,2.775-4.222a17.772,17.772,0,0,1,.062,1.877c-1.253,2.369-3.2,4.186-6.637,6.508a22.01,22.01,0,0,1-12.125,4.091,4.951,4.951,0,0,1-4.947-3.125A14.823,14.823,0,0,0,91.37,249.61Z" transform="translate(-30.208 -191.197)" fill="#5a5c75"/>
        <path id="Path_241775" data-name="Path 241775" d="M92.2,267.725a24.743,24.743,0,0,0,6.31-3.123c.76-.514,1.443-1,2.066-1.478l.006,0c1.283-.514,2.389,1.2,2.4,1.208a24.934,24.934,0,0,1-5.434,3.711,31.7,31.7,0,0,1-6.037,3.082c0-.009-.054-2.481.689-3.394Z" transform="translate(-27.876 -208.662)" fill="#2d313f"/>
        <path id="Path_241776" data-name="Path 241776" d="M96.458,197.639c1.629.724,7.48-1.025,12.065-3.921s6.937-5.145,6.455-6.4c1.126,1.338,8.2,6.383,9.008,8.474s-.483,5.148-5.067,7.8-9.813,3.459-13.111,2.011S96.458,197.639,96.458,197.639Z" transform="translate(-50.498 -154.186)" fill="#f0f1f3"/>
        <path id="Path_241777" data-name="Path 241777" d="M142.124,258.977c-3.378.12-6.153.06-7.239-1.87a8.188,8.188,0,0,1-1.146-2.654,10.463,10.463,0,0,0,7.158,1.834c1.082,0,2.675,1.538,3.08,2.471A12.127,12.127,0,0,1,142.124,258.977Z" transform="translate(-80.721 -202.494)" fill="#f0f1f3"/>
        <g id="Group_61880" data-name="Group 61880" transform="translate(73.712 40.859)">
          <path id="Path_241778" data-name="Path 241778" d="M87.951,219.6c.443-1.408.885-3.139,0-4.726.261.267.486.512.663.724a6.006,6.006,0,0,1,1.327,3.982,8.61,8.61,0,0,1-2.531,4.759A25.708,25.708,0,0,1,87.951,219.6Z" transform="translate(-87.411 -214.875)" fill="#f0f1f3"/>
          <path id="Path_241779" data-name="Path 241779" d="M87.383,231.654l.015.017Z" transform="translate(-84.852 -226.948)" fill="#f0f1f3"/>
        </g>
        <g id="Group_61881" data-name="Group 61881" transform="translate(60.176 44.819)">
          <path id="Path_241780" data-name="Path 241780" d="M107.268,234.5c.214-.231.4-.457.584-.68v.007A14.028,14.028,0,0,1,106,235.712a20.777,20.777,0,0,1-9.186,4.728c-.4-.934-2-2.475-3.08-2.472a22.624,22.624,0,0,0,8.808-3.222c4.506-2.792,5.477-5.7,5.493-5.753-.07.263-.147.52-.225.766A25.713,25.713,0,0,0,107.268,234.5Z" transform="translate(-93.732 -228.994)" fill="#2d313f"/>
        </g>
        <path id="Path_241781" data-name="Path 241781" d="M194.476,99.016c-2.413-2.292-3.861-3.257-7.963-5.61S165.52,81.461,163.65,80.376s-3.438-1.086-4.162-.543C160.694,78.144,176.9,68.09,179.636,69.3s30.886,17.213,33.058,18.982C212.694,88.278,209.316,94.311,194.476,99.016Z" transform="translate(-156.66 -69.196)" fill="#f0f1f3"/>
        <path id="Path_241782" data-name="Path 241782" d="M233.786,213.122,207.666,198.1v.965l26.12,15.1Z" transform="translate(-191.265 -161.947)" fill="#5a5c75"/>
        <path id="Path_241783" data-name="Path 241783" d="M343.015,182.816a6.047,6.047,0,0,0,.118,2.02c-1.448-.885-6.274-3.74-6.274-3.74v-1.85l6.156,3.57Z" transform="translate(-336.846 -148.38)" fill="#3d4154"/>
        <g id="Group_61882" data-name="Group 61882" transform="translate(0 30.021)">
          <path id="Path_241784" data-name="Path 241784" d="M337.515,176.234v.563l5.63,3.209h0a4.8,4.8,0,0,0-.118.641l-6.156-3.57S336.71,176.556,337.515,176.234Z" transform="translate(-336.858 -176.234)" fill="#5a5c75"/>
        </g>
        <path id="Path_241785" data-name="Path 241785" d="M134.885,257.107a8.188,8.188,0,0,1-1.146-2.654c1.086,1.99,3.982,3.016,6.153,2.9a6.836,6.836,0,0,1,4.085,1.41,12.127,12.127,0,0,1-1.853.219C138.746,259.1,135.971,259.038,134.885,257.107Z" transform="translate(-80.721 -202.494)" fill="#5a5c75"/>
        <path id="Path_241786" data-name="Path 241786" d="M89.942,219.581a8.61,8.61,0,0,1-2.531,4.759s1.334-3.862,1.51-4.732.659-2.26-.97-4.732c.261.267.486.512.663.724A6.006,6.006,0,0,1,89.942,219.581Z" transform="translate(-13.699 -174.016)" fill="#5a5c75"/>
        <path id="Path_241787" data-name="Path 241787" d="M102.832,242.136a28.683,28.683,0,0,1-6.813,2.745c-.135-.121-.274-.235-.416-.341a.236.236,0,0,1,.139-.091,27.408,27.408,0,0,0,6.856-2.736,14.586,14.586,0,0,0,5.072-4.35.241.241,0,0,1,.234-.111c-.031.241-.058.488-.082.733A15.8,15.8,0,0,1,102.832,242.136Z" transform="translate(-33.952 -190.117)" fill="#5a5c75"/>
        <path id="Path_241788" data-name="Path 241788" d="M103.614,246.934a24.61,24.61,0,0,1-7.13,3.106c-.094-.129-.2-.26-.316-.391a.239.239,0,0,1,.1-.054,23.941,23.941,0,0,0,7.075-3.061,18.353,18.353,0,0,0,3.814-3.309.238.238,0,0,1,.205-.086c-.016.229-.03.443-.04.636A19.7,19.7,0,0,1,103.614,246.934Z" transform="translate(-33.571 -194.352)" fill="#5a5c75"/>
        <path id="Path_241789" data-name="Path 241789" d="M131.145,192.555a7.28,7.28,0,0,1-1.99-2.223c3.439-2.043,18.05-10.083,18.05-10.083a7.824,7.824,0,0,1,2.036,1.143,8.187,8.187,0,0,1,.424.839c.483,1.258-1.87,3.508-6.455,6.4S132.774,193.279,131.145,192.555Z" transform="translate(-85.185 -149.102)" fill="#5a5c75"/>
        <g id="Group_61883" data-name="Group 61883" transform="translate(56.577 22.174)">
          <path id="Path_241790" data-name="Path 241790" d="M137.847,158.373a7.826,7.826,0,0,0-2.036-1.143c-.711-1.568-5.443-8.505-5.443-8.505.354-.438.724-.784,1.387,0,.6.707,5.016,7.633,6.237,9.916Q137.926,158.515,137.847,158.373Z" transform="translate(-130.369 -148.257)" fill="#3d4154"/>
          <path id="Path_241791" data-name="Path 241791" d="M129.439,186.942c-.016-.041-.037-.089-.063-.145C129.4,186.852,129.423,186.9,129.439,186.942Z" transform="translate(-121.536 -175.988)" fill="#3d4154"/>
          <path id="Path_241792" data-name="Path 241792" d="M129.727,186.279c-.024-.05-.049-.1-.079-.163C129.678,186.176,129.7,186.229,129.727,186.279Z" transform="translate(-121.901 -175.498)" fill="#3d4154"/>
          <path id="Path_241793" data-name="Path 241793" d="M130.078,185.5c-.034-.066-.071-.137-.112-.215C130.007,185.359,130.045,185.431,130.078,185.5Z" transform="translate(-122.341 -174.898)" fill="#3d4154"/>
        </g>
        <path id="Path_241794" data-name="Path 241794" d="M138.147,168.351v-4.3a29.766,29.766,0,0,0,3.844-2.448l8.9,5.23s-2.411,1.327-5.5,3.039A15.474,15.474,0,0,0,138.147,168.351Z" transform="translate(-88.869 -135.685)" fill="#64667d"/>
        <path id="Path_241795" data-name="Path 241795" d="M165.071,191.159c-2.594-1.985-7.3-2.057-7.3-2.057l7.3-3.488a15.473,15.473,0,0,1,7.237,1.52C170.036,188.392,167.4,189.858,165.071,191.159Z" transform="translate(-115.793 -152.948)" fill="#3d4154"/>
        <path id="Path_241796" data-name="Path 241796" d="M183.577,173.358a41.5,41.5,0,0,0,7.3-3.026h0v4.3l-7.3,3.488Z" transform="translate(-141.598 -141.966)" fill="#5a5c75"/>
        <path id="Path_241797" data-name="Path 241797" d="M184.569,181.621c.583-.161,1.143-.329,1.689-.5v4.762s4.705.073,7.3,2.057l-2.684,1.51-4.615-1.651c-1.17-1.978-2.168-3.827-2.413-4.209A1.214,1.214,0,0,1,184.569,181.621Z" transform="translate(-144.279 -149.729)" fill="#2d313f"/>
        <g id="Group_61884" data-name="Group 61884" transform="translate(41.979 38.07)">
          <path id="Path_241798" data-name="Path 241798" d="M197.761,206.585h0c-1.117.632-2.035,1.159-2.624,1.509-.652-.944-1.347-2.07-1.991-3.159h0Z" transform="translate(-193.146 -204.934)" fill="#3d4154"/>
        </g>
        <path id="Path_241799" data-name="Path 241799" d="M155.208,177.919a15.474,15.474,0,0,0-7.237-1.52v-3.612a61.83,61.83,0,0,0,5.731,3.205c.724.148,1.086-1.474,1.749-1.113s2.507,1.519,2.507,1.519h0Z" transform="translate(-98.692 -143.734)" fill="#73758e"/>
        <path id="Path_241800" data-name="Path 241800" d="M146.908,167.576l-8.761-5.109q.658-.443,1.214-.865l8.9,5.23-1.351.744Z" transform="translate(-86.239 -135.685)" fill="#73758e"/>
        <path id="Path_241801" data-name="Path 241801" d="M143.047,189.885c5.731-3.492,5.186-5.56,5.186-5.56h0a8.169,8.169,0,0,1,.424.839c.483,1.258-1.87,3.508-6.455,6.4s-10.436,4.645-12.065,3.921a3.359,3.359,0,0,1-.983-.882C132.757,194.93,137.316,193.377,143.047,189.885Z" transform="translate(-84.177 -152.035)" fill="#3d4154"/>
        <path id="Path_241802" data-name="Path 241802" d="M216.83,206.922c1.1,2.257.724,3.378,0,3.076-.225-.094-3.515-1.98-7.969-4.549,1.767-1.082,5.656-2.968,5.66-2.97C215.544,204.211,216.284,205.8,216.83,206.922Z" transform="translate(-175.333 -165.097)" fill="#2d313f"/>
        <path id="Path_241803" data-name="Path 241803" d="M223.828,175.4c.567.4,1.042.758,1.4,1.058A25.3,25.3,0,0,1,230.577,183h0s-3.893,1.888-5.66,2.97l.918.529c-1.661-.958-3.516-2.029-5.457-3.151-.213-1.269-.775-4.668-.824-5.5A20.025,20.025,0,0,1,223.828,175.4Z" transform="translate(-191.391 -145.615)" fill="#5a5c75"/>
        <path id="Path_241804" data-name="Path 241804" d="M250.238,185.285a40.106,40.106,0,0,1,1.173,5.52l-2.078-1.2c-.213-1.269-.775-4.668-.824-5.5A1.873,1.873,0,0,1,250.238,185.285Z" transform="translate(-220.345 -151.875)" fill="#2d313f"/>
        <path id="Path_241805" data-name="Path 241805" d="M243.619,172.513l9.049-4.976c1.3.82,2.434,1.569,3.334,2.206h0a20.027,20.027,0,0,0-4.274,2.44c.049.833.611,4.232.824,5.5C249.64,176,246.538,174.2,243.619,172.513Z" transform="translate(-223.565 -139.955)" fill="#3d4154"/>
        <g id="Group_61885" data-name="Group 61885" transform="translate(16.401 21.996)">
          <path id="Path_241806" data-name="Path 241806" d="M258.928,147.622c3.254,1.894,6.6,3.888,9.282,5.586h0l-9.049,4.976h0s-3.231-8.305-3.653-9.02C256.245,148.827,257.647,148.2,258.928,147.622Z" transform="translate(-255.508 -147.622)" fill="#5a5c75"/>
        </g>
        <path id="Path_241807" data-name="Path 241807" d="M290.366,153.117c.422.715,3.653,9.02,3.653,9.02l-5.08-2.944s-.926-4.66-1.167-5.5Z" transform="translate(-273.964 -129.58)" fill="#3d4154"/>
        <path id="Path_241808" data-name="Path 241808" d="M291.2,148.48l-2.594.572,5.555-2.38.458.266Z" transform="translate(-274.796 -124.942)" fill="#3d4154"/>
        <path id="Path_241809" data-name="Path 241809" d="M290.238,136.761c0-.469.1-1.7.222-2.969l5.8-3c2.146,1.206,4.921,2.783,7.8,4.454l-5.555,2.379.238,1.006-3.491,1.936c-1.8-1.044-2.97-1.72-3.141-1.816C291.143,138.208,290.238,137.786,290.238,136.761Z" transform="translate(-284.695 -113.516)" fill="#3d4154"/>
        <path id="Path_241810" data-name="Path 241810" d="M309.375,158.743s.809,3.488.929,4.5c-.926-.518-4.421-2.562-4.421-2.562Z" transform="translate(-295.329 -133.628)" fill="#2d313f"/>
        <path id="Path_241811" data-name="Path 241811" d="M323.84,129.01l-5.8,3h0c.047-.5.1-1,.147-1.475l4.415-2.219Z" transform="translate(-312.275 -111.735)" fill="#2d313f"/>
        <path id="Path_241812" data-name="Path 241812" d="M261.6,163.179l-1.237,9.535-2.3-1.333,1.8-9.275Q260.763,162.655,261.6,163.179Z" transform="translate(-233.213 -136.048)" fill="#2d313f"/>
        <path id="Path_241813" data-name="Path 241813" d="M304.432,137.917l-1.426,9.593h0l-2.209-1.281,1.817-9.351Q303.5,137.379,304.432,137.917Z" transform="translate(-288.031 -117.895)" fill="#2d313f"/>
        <path id="Path_241814" data-name="Path 241814" d="M183.937,199.3a2.059,2.059,0,0,0-2.388-.925c-1.767.564-1.948,2.446-2,3.4-.336.192-.645.368-.923.529-.13-1.1.252-3.791,2.716-4.588a2.564,2.564,0,0,1,3.152,1.278Z" transform="translate(-133.822 -161.561)" fill="#64667d"/>
        <path id="Path_241815" data-name="Path 241815" d="M320.228,167.546v.835l-8.355-4.84v-.821Z" transform="translate(-306.934 -136.489)" fill="#5a5c75"/>
        <path id="Path_241816" data-name="Path 241816" d="M215.059,215.212l-.965.392s.1-1.608-1.233-1.6-1.87,1.41-1.992,1.914-.3,1.921.813,2.162,2.835-.759,3.227-.983S215.27,215.755,215.059,215.212Z" transform="translate(-173.563 -173.387)" fill="#5a5c75"/>
        <path id="Path_241817" data-name="Path 241817" d="M220.134,213.879a2.21,2.21,0,0,1,1.692-.147c-1.331,0-1.87,1.41-1.992,1.914s-.3,1.921.813,2.162C218.234,217.326,219.29,214.34,220.134,213.879Z" transform="translate(-182.529 -173.119)" fill="#3d4154"/>
        <path id="Path_241818" data-name="Path 241818" d="M123.784,163.732s.274-2.894,1.44-3.377,1.287.282,1.287.8a5.97,5.97,0,0,1-.523,2.735,4.233,4.233,0,0,1-1.324,1.18Z" transform="translate(-60.463 -134.677)" fill="#5a5c75"/>
        <path id="Path_241819" data-name="Path 241819" d="M127.425,159.684c-1.166.483-1.44,3.376-1.44,3.377-.259-.392-.525-.8-.8-1.2a3.984,3.984,0,0,1,1.031-2.2,1.786,1.786,0,0,1,2.1-.081A1.192,1.192,0,0,0,127.425,159.684Z" transform="translate(-62.663 -134.007)" fill="#3d4154"/>
        <path id="Path_241820" data-name="Path 241820" d="M179.474,285.672a4.228,4.228,0,0,1-.474-1.915c.241-.151,1.017.558,1.017.558A2.172,2.172,0,0,1,179.474,285.672Z" transform="translate(-129.451 -223.564)" fill="#2d313f"/>
        <path id="Path_241821" data-name="Path 241821" d="M181.578,276.551a3.992,3.992,0,0,0-1.031-1.594,4.483,4.483,0,0,0-.141,1.186C180.428,276.51,181.578,276.551,181.578,276.551Z" transform="translate(-131.41 -217.247)" fill="#2d313f"/>
        <path id="Path_241822" data-name="Path 241822" d="M189.594,271.7a1.914,1.914,0,0,0-1.4.229,3.991,3.991,0,0,0,1.176,1.056C189.639,273.072,189.594,271.7,189.594,271.7Z" transform="translate(-141.613 -214.87)" fill="#2d313f"/>
        <path id="Path_241823" data-name="Path 241823" d="M185.211,280.311c-.152-.264-.14-.555.027-.652s.426.039.578.3.14.555-.027.652S185.363,280.575,185.211,280.311Z" transform="translate(-137.073 -220.608)" fill="#2d313f"/>
        <path id="Path_241824" data-name="Path 241824" d="M186.693,286.661s.121-1.961-.241-1.991-1.116.95-1.116.95A2.163,2.163,0,0,0,186.693,286.661Z" transform="translate(-137.928 -224.236)" fill="#5a5c75"/>
        <path id="Path_241825" data-name="Path 241825" d="M191.024,277.967c-.044-.308-1.312-.769-1.433-.769a2.605,2.605,0,0,0,.407,1.768C190.27,278.962,191.054,278.178,191.024,277.967Z" transform="translate(-143.42 -218.86)" fill="#5a5c75"/>
        <path id="Path_241826" data-name="Path 241826" d="M185.349,285.148c.237-.246.523-.494.708-.478s.243.532.257,1.036A2.088,2.088,0,0,1,185.349,285.148Z" transform="translate(-137.533 -224.236)" fill="#2d313f"/>
        <path id="Path_241827" data-name="Path 241827" d="M190.37,278.5c.015.108-.183.367-.417.594h0a2.583,2.583,0,0,1-.411-1.155C189.923,278.1,190.345,278.325,190.37,278.5Z" transform="translate(-142.766 -219.393)" fill="#2d313f"/>
        <path id="Path_241828" data-name="Path 241828" d="M188.2,271.926a1.914,1.914,0,0,1,1.4-.229,4.933,4.933,0,0,0-1.117.568A2.935,2.935,0,0,1,188.2,271.926Z" transform="translate(-141.623 -214.87)" fill="#5a5c75"/>
        <path id="Path_241829" data-name="Path 241829" d="M313.7,208.745a4.229,4.229,0,0,1-.474-1.915c.241-.151,1.017.558,1.017.558A2.171,2.171,0,0,1,313.7,208.745Z" transform="translate(-301.323 -168.213)" fill="#2d313f"/>
        <path id="Path_241830" data-name="Path 241830" d="M315.8,199.624a3.993,3.993,0,0,0-1.03-1.594,4.48,4.48,0,0,0-.141,1.186C314.655,199.583,315.8,199.624,315.8,199.624Z" transform="translate(-303.284 -161.896)" fill="#2d313f"/>
        <path id="Path_241831" data-name="Path 241831" d="M323.82,194.769a1.913,1.913,0,0,0-1.4.229,4,4,0,0,0,1.176,1.056C323.865,196.145,323.82,194.769,323.82,194.769Z" transform="translate(-313.485 -159.518)" fill="#2d313f"/>
        <path id="Path_241832" data-name="Path 241832" d="M319.437,203.384c-.152-.264-.14-.555.027-.652s.426.039.578.3.14.555-.027.652S319.589,203.648,319.437,203.384Z" transform="translate(-308.945 -165.257)" fill="#2d313f"/>
        <path id="Path_241833" data-name="Path 241833" d="M320.92,209.734s.12-1.96-.241-1.99-1.116.95-1.116.95A2.163,2.163,0,0,0,320.92,209.734Z" transform="translate(-309.801 -168.884)" fill="#5a5c75"/>
        <path id="Path_241834" data-name="Path 241834" d="M325.25,201.04c-.044-.308-1.312-.769-1.433-.769a2.6,2.6,0,0,0,.407,1.768C324.5,202.035,325.28,201.251,325.25,201.04Z" transform="translate(-315.292 -163.508)" fill="#5a5c75"/>
        <path id="Path_241835" data-name="Path 241835" d="M319.575,208.221c.236-.246.523-.494.708-.478s.243.532.257,1.036A2.087,2.087,0,0,1,319.575,208.221Z" transform="translate(-309.405 -168.884)" fill="#2d313f"/>
        <path id="Path_241836" data-name="Path 241836" d="M324.6,201.572c.015.108-.183.367-.417.594h0a2.584,2.584,0,0,1-.411-1.155C324.149,201.173,324.571,201.4,324.6,201.572Z" transform="translate(-314.638 -164.041)" fill="#2d313f"/>
        <path id="Path_241837" data-name="Path 241837" d="M322.427,195a1.913,1.913,0,0,1,1.4-.229,4.94,4.94,0,0,0-1.117.568A2.974,2.974,0,0,1,322.427,195Z" transform="translate(-313.495 -159.518)" fill="#5a5c75"/>
        <path id="Path_241838" data-name="Path 241838" d="M322.691,124.035c.121-.845,0-2.413,1.388-1.689.273.142,1.3.7,2.793,1.541l-4.415,2.219C322.556,125.151,322.648,124.342,322.691,124.035Z" transform="translate(-316.545 -107.305)" fill="#64667d"/>
        <path id="Path_241839" data-name="Path 241839" d="M202.365,241.539l-.857-.5a.275.275,0,0,1-.138-.239v-.358a.276.276,0,0,1,.413-.239l.858.491a.275.275,0,0,1,.139.239v.362A.276.276,0,0,1,202.365,241.539Z" transform="translate(-158.492 -192.217)" fill="#c86861"/>
        <path id="Path_241840" data-name="Path 241840" d="M349.819,111.722c-.417,2.8-1.276,12.182-1.276,12.182l-.986-.572a106.663,106.663,0,0,1,1.278-11.272A2.012,2.012,0,0,1,349.819,111.722Z" transform="translate(-346.532 -99.795)" fill="#c86861"/>
      </g>
      <g id="Group_61887" data-name="Group 61887" transform="translate(26.546 38.413)">
        <path id="Path_241841" data-name="Path 241841" d="M255.6,206.154a.811.811,0,0,0,.308.61,11.36,11.36,0,0,0,1.429.871,4.017,4.017,0,0,0,.724-.067v.486a1.735,1.735,0,0,1-.875.066,7.852,7.852,0,0,1-1.638-1.008A1.792,1.792,0,0,1,255.6,206.154Z" transform="translate(-255.502 -206.154)" fill="#73758e"/>
      </g>
      <g id="Group_61888" data-name="Group 61888" transform="translate(26.644 38.413)">
        <path id="Path_241842" data-name="Path 241842" d="M257.239,207.635a11.358,11.358,0,0,1-1.429-.871.755.755,0,0,1-.288-.464l-.019-.147,2.461,1.414A4.018,4.018,0,0,1,257.239,207.635Z" transform="translate(-255.502 -206.154)" fill="#f0f1f3"/>
      </g>
      <g id="Group_61889" data-name="Group 61889" transform="translate(21.473 35.538)">
        <path id="Path_241843" data-name="Path 241843" d="M273.689,195.9a.811.811,0,0,0,.308.611,11.358,11.358,0,0,0,1.429.871,4.014,4.014,0,0,0,.724-.067v.486a1.736,1.736,0,0,1-.876.066,7.853,7.853,0,0,1-1.638-1.008A1.794,1.794,0,0,1,273.689,195.9Z" transform="translate(-273.591 -195.905)" fill="#73758e"/>
      </g>
      <g id="Group_61890" data-name="Group 61890" transform="translate(21.571 35.538)">
        <path id="Path_241844" data-name="Path 241844" d="M275.328,197.386a11.341,11.341,0,0,1-1.429-.871.754.754,0,0,1-.288-.464l-.019-.147,2.461,1.414A4.015,4.015,0,0,1,275.328,197.386Z" transform="translate(-273.591 -195.905)" fill="#f0f1f3"/>
      </g>
    </g>
  </g>
</svg>
