<svg xmlns="http://www.w3.org/2000/svg" width="17.689" height="19.082" viewBox="0 0 17.689 19.082">
  <g id="transaction" transform="translate(-1.631 -0.5)">
    <path id="Path_253492" data-name="Path 253492" d="M1.643,5.871a1.157,1.157,0,0,0,1.173,1.19H15.267L13.139,9.19a1.2,1.2,0,0,0,.8,2.043,1.21,1.21,0,0,0,.882-.35l4.179-4.179a1.244,1.244,0,0,0,.239-1.319,2.1,2.1,0,0,0-.246-.36L14.813.851a1.159,1.159,0,0,0-1.674.013,1.159,1.159,0,0,0-.008,1.676l2.137,2.137H2.817A1.159,1.159,0,0,0,1.643,5.871Z" transform="translate(-0.005 0)" fill="#6d7485"/>
    <path id="Path_253493" data-name="Path 253493" d="M19.319,19.422a1.157,1.157,0,0,0-1.173-1.191H5.695l2.139-2.14a1.192,1.192,0,0,0-1.689-1.683L1.967,18.588a1.209,1.209,0,0,0-.221,1.348,1.9,1.9,0,0,0,.228.33l4.175,4.175a1.167,1.167,0,0,0,.821.351,1.221,1.221,0,0,0,.854-.364,1.16,1.16,0,0,0,.008-1.676L5.695,20.616h12.45a1.159,1.159,0,0,0,1.174-1.193Z" transform="translate(0 -5.211)" fill="#6d7485"/>
  </g>
</svg>
