<?xml version="1.0" encoding="iso-8859-1"?>
<!-- Uploaded to: SVG Repo, www.svgrepo.com, Generator: SVG Repo Mixer Tools -->
<svg height="800px" width="800px" version="1.1" id="Layer_1" xmlns="http://www.w3.org/2000/svg" xmlns:xlink="http://www.w3.org/1999/xlink" 
	 viewBox="0 0 512 512" xml:space="preserve">
<path style="fill:#1785C6;" d="M511.996,256c0,141.391-114.594,256-255.992,256c-141.391,0-256-114.609-256-256
	c0-141.375,114.609-256,256-256C397.402,0,511.996,114.625,511.996,256z"/>
<path style="fill:#f6f8fd;" d="M395.652,384h82.094c4-6.906,7.688-14.031,11.031-21.328h-85.031
	c10.312-30.266,16.344-62.5,17.406-96h90.625c0.156-3.531,0.219-7.094,0.219-10.672c0-3.562-0.062-7.125-0.219-10.656h-90.625
	c-1.062-33.5-7.094-65.734-17.406-96h85.031c-3.344-7.312-7.031-14.422-11.031-21.344h-82.094
	C375.59,80.203,344.613,38.125,305.848,4.859C289.723,1.672,273.066,0,256.004,0s-33.719,1.672-49.844,4.859
	C167.395,38.125,136.426,80.203,116.348,128H34.254c-4,6.922-7.688,14.031-11.031,21.344h85.031
	c-10.312,30.266-16.344,62.5-17.406,96H0.223c-0.141,3.531-0.219,7.094-0.219,10.656c0,3.578,0.078,7.141,0.219,10.672h90.625
	c1.062,33.5,7.094,65.734,17.406,96H23.223c3.344,7.297,7.031,14.422,11.031,21.328h82.094
	c20.078,47.797,51.047,89.875,89.812,123.156c16.125,3.172,32.781,4.844,49.844,4.844s33.719-1.672,49.844-4.844
	C344.613,473.875,375.59,431.797,395.652,384z M245.332,510.547c-15.172-10.531-29.438-22.453-42.672-35.688
	c-26.484-26.484-47.656-57.016-63.031-90.859h105.703V510.547z M245.332,362.672H130.863c-11.297-30.766-17.562-62.953-18.672-96
	h133.141L245.332,362.672L245.332,362.672z M245.332,245.344H112.191c1.109-33.047,7.375-65.234,18.672-96h114.469V245.344z
	 M245.332,128H139.629c15.375-33.828,36.547-64.375,63.031-90.844c13.234-13.25,27.5-25.156,42.672-35.688V128z M266.676,1.469
	c15.172,10.516,29.438,22.438,42.672,35.688c26.484,26.469,47.656,57.016,63.031,90.844H266.676V1.469z M266.676,149.344h114.477
	c11.281,30.766,17.562,62.953,18.656,96H266.676V149.344z M266.676,266.672h133.133c-1.094,33.047-7.375,65.234-18.656,96H266.676
	V266.672z M266.676,384h105.703c-15.375,33.844-36.547,64.375-63.031,90.859c-13.234,13.234-27.5,25.156-42.672,35.688V384z"/>
</svg>