<svg id="Group_85063" data-name="Group 85063" xmlns="http://www.w3.org/2000/svg" xmlns:xlink="http://www.w3.org/1999/xlink" width="17.252" height="17.255" viewBox="0 0 17.252 17.255">
  <defs>
    <clipPath id="clip-path">
      <rect id="Rectangle_34519" data-name="Rectangle 34519" width="17.252" height="17.255" transform="translate(0 0)" fill="none"/>
    </clipPath>
  </defs>
  <g id="Group_85063-2" data-name="Group 85063" clip-path="url(#clip-path)">
    <path id="Path_276829" data-name="Path 276829" d="M4.946,4.377a.654.654,0,1,0-.654-.654.656.656,0,0,0,.654.654" fill="#6d7485"/>
    <path id="Path_276830" data-name="Path 276830" d="M12.308,7.976a.654.654,0,1,0,.654.654.654.654,0,0,0-.654-.654" fill="#6d7485"/>
    <path id="Path_276831" data-name="Path 276831" d="M14.9,0H2.352A2.353,2.353,0,0,0,0,2.355V14.9a2.353,2.353,0,0,0,2.352,2.352H14.9a2.354,2.354,0,0,0,2.348-2.348V2.355A2.354,2.354,0,0,0,14.9,0M1.879,3.15H3.241a1.8,1.8,0,0,1,3.411,0h8.723a.353.353,0,0,1,.046,0A.573.573,0,0,1,15.373,4.3H6.65a1.8,1.8,0,0,1-3.411,0H1.831A.573.573,0,1,1,1.879,3.15M15.374,14.11H9.1a1.8,1.8,0,0,1-3.411,0H1.879a.573.573,0,0,1,0-1.145H5.694a1.8,1.8,0,0,1,3.411,0h6.27a.368.368,0,0,1,.047,0,.573.573,0,1,1-.048,1.145m0-4.908H14.013a1.8,1.8,0,0,1-3.411,0H1.879a.384.384,0,0,1-.048,0,.573.573,0,0,1,.048-1.145H10.6a1.8,1.8,0,0,1,3.411,0h1.362a.384.384,0,0,1,.048,0A.573.573,0,0,1,15.375,9.2" fill="#6d7485"/>
    <path id="Path_276832" data-name="Path 276832" d="M7.4,12.884a.654.654,0,1,0,.654.654.654.654,0,0,0-.654-.654" fill="#6d7485"/>
  </g>
</svg>
