<svg xmlns="http://www.w3.org/2000/svg" width="21.074" height="21.074" viewBox="0 0 21.074 21.074">
  <g id="map" transform="translate(0 -0.5)">
    <path id="Path_253494" data-name="Path 253494" d="M32.143,272.066H31.2a.621.621,0,0,0-.57.375l-2.616,6.092,6.213-3.173a29.3,29.3,0,0,1-2.082-3.293Zm0,0" transform="translate(-26.859 -260.388)" fill="#6d7485"/>
    <path id="Path_253495" data-name="Path 253495" d="M180.326,272.442a.62.62,0,0,0-.57-.375h-.945a33.151,33.151,0,0,1-3.85,5.547,1.863,1.863,0,0,1-2.806,0c-.076-.087-.471-.545-1.016-1.249l-1.12.572,4.237,4.229L182.286,277Zm0,0" transform="translate(-163.022 -260.389)" fill="#6d7485"/>
    <path id="Path_253496" data-name="Path 253496" d="M.389,407.589l-.338.787a.619.619,0,0,0,.57.862h9.1a2.5,2.5,0,0,1,.363-.2L5.838,404.8Zm0,0" transform="translate(0 -387.664)" fill="#6d7485"/>
    <path id="Path_253497" data-name="Path 253497" d="M309.623,422.691l-1.27-2.956-7.365,3.818h8.065a.619.619,0,0,0,.57-.862Zm0,0" transform="translate(-288.599 -401.979)" fill="#6d7485"/>
    <path id="Path_253498" data-name="Path 253498" d="M242.181,121.415a.62.62,0,1,0-.62.619A.62.62,0,0,0,242.181,121.415Zm0,0" transform="translate(-231.024 -115.345)" fill="#6d7485"/>
    <path id="Path_253499" data-name="Path 253499" d="M126.522,16.372c.209-.24,5.11-5.91,5.11-9.807,0-8.037-11.156-8.135-11.156,0,0,3.9,4.9,9.568,5.11,9.807A.621.621,0,0,0,126.522,16.372Zm-2.327-10.3a1.859,1.859,0,1,1,1.859,1.855A1.86,1.86,0,0,1,124.195,6.07Zm0,0" transform="translate(-115.517 0)" fill="#6d7485"/>
  </g>
</svg>
