<svg xmlns="http://www.w3.org/2000/svg" width="21.578" height="20.38" viewBox="0 0 21.578 20.38">
  <g id="Group_87612" data-name="Group 87612" transform="translate(-55 -445.035)">
    <path id="Path_253500" data-name="Path 253500" d="M.6,234.668H3a.6.6,0,0,1,.6.6v5.994a.6.6,0,0,1-.6.6H.6a.6.6,0,0,1-.6-.6v-5.994a.6.6,0,0,1,.6-.6Zm0,0" transform="translate(55 223.554)" fill="#6d7485"/>
    <path id="Path_253501" data-name="Path 253501" d="M107.267,149.332h2.4a.6.6,0,0,1,.6.6v10.789a.6.6,0,0,1-.6.6h-2.4a.6.6,0,0,1-.6-.6V149.931A.6.6,0,0,1,107.267,149.332Zm0,0" transform="translate(-45.674 304.095)" fill="#6d7485"/>
    <path id="Path_253502" data-name="Path 253502" d="M213.931,192h2.4a.6.6,0,0,1,.6.6v8.391a.6.6,0,0,1-.6.6h-2.4a.6.6,0,0,1-.6-.6V192.6A.6.6,0,0,1,213.931,192Zm0,0" transform="translate(-146.344 263.824)" fill="#6d7485"/>
    <path id="Path_253503" data-name="Path 253503" d="M320.6,128H323a.6.6,0,0,1,.6.6v11.988a.6.6,0,0,1-.6.6h-2.4a.6.6,0,0,1-.6-.6V128.6A.6.6,0,0,1,320.6,128Zm0,0" transform="translate(-247.018 324.228)" fill="#6d7485"/>
    <path id="Path_253504" data-name="Path 253504" d="M19.78,0a1.8,1.8,0,0,0-1.8,1.8,1.778,1.778,0,0,0,.1.574l-3,1.784a1.783,1.783,0,0,0-2.87.384L9.567,3.23A1.8,1.8,0,0,0,9.59,3a1.8,1.8,0,1,0-3.459.686L2.7,6.244a1.777,1.777,0,0,0-.9-.25A1.817,1.817,0,1,0,3.476,7.16L6.943,4.572A1.76,1.76,0,0,0,9.025,4.3l3.01,1.491a1.8,1.8,0,0,0,3.549-.4c0-.046-.01-.089-.013-.133l3.264-1.94a1.78,1.78,0,0,0,.946.275,1.8,1.8,0,1,0,0-3.6Zm0,0" transform="translate(55 445.035)" fill="#6d7485"/>
  </g>
</svg>
