<svg xmlns="http://www.w3.org/2000/svg" width="29.268" height="25.556" viewBox="0 0 29.268 25.556">
  <g id="Group_85042" data-name="Group 85042" transform="translate(-494 -458.503)">
    <path id="Path_273621" data-name="Path 273621" d="M21.776,3.064h2.2a5.3,5.3,0,0,1,5.292,5.292V20.265a5.3,5.3,0,0,1-5.292,5.292H5.3a5.3,5.3,0,0,1-5.3-5.3V8.355A5.3,5.3,0,0,1,5.292,3.064h2.2A4.148,4.148,0,0,1,8.606,1.312,4.588,4.588,0,0,1,11.528,0H17.74a4.591,4.591,0,0,1,2.919,1.317,4.151,4.151,0,0,1,1.115,1.751Zm-7.141,4.8a6.45,6.45,0,1,1-4.561,1.889,6.45,6.45,0,0,1,4.561-1.889m3.153,3.291A4.465,4.465,0,1,0,19.095,14.3a4.466,4.466,0,0,0-1.308-3.153Zm6.188-6.1H20.934a.993.993,0,0,1-.992-.992,1.885,1.885,0,0,0-.653-1.311,2.519,2.519,0,0,0-1.548-.759H11.528a2.519,2.519,0,0,0-1.548.759,1.886,1.886,0,0,0-.653,1.312.993.993,0,0,1-.992.992H5.292A3.317,3.317,0,0,0,1.985,8.355V20.265a3.319,3.319,0,0,0,3.307,3.307H23.973a3.317,3.317,0,0,0,3.307-3.307V8.355a3.319,3.319,0,0,0-3.307-3.307Z" transform="translate(494 458.503)" fill="#0c1834"/>
  </g>
</svg>
