<svg xmlns="http://www.w3.org/2000/svg" width="32.01" height="24.237" viewBox="0 0 32.01 24.237">
  <g id="Group_85043" data-name="Group 85043" transform="translate(-787.782 -459.67)">
    <path id="Path_273613" data-name="Path 273613" d="M262.307,36.46a3.122,3.122,0,0,1-3.057-3.026V28.225a3.119,3.119,0,0,1,3.029-3.056H288.2a3.117,3.117,0,0,1,3.057,3.025V33.4a3.118,3.118,0,0,1-3.026,3.054Zm.018-9.055a.871.871,0,0,0-.838.85V33.4a.868.868,0,0,0,.851.82H288.2a.87.87,0,0,0,.821-.851V28.225a.868.868,0,0,0-.85-.82Z" transform="translate(528.532 447.447)" fill="#0c1834"/>
    <path id="Path_273614" data-name="Path 273614" d="M277.6,31.093a1.863,1.863,0,1,1,1.863-1.863,1.866,1.866,0,0,1-1.863,1.863m0-2.236a.373.373,0,0,0-.373.373c0,.41.745.41.745,0a.373.373,0,0,0-.373-.373" transform="translate(536.623 448.526)" fill="#0c1834"/>
    <path id="Path_273615" data-name="Path 273615" d="M289.8,32.7a1.123,1.123,0,0,1-1.023-.663l-3.105-6.991a1.118,1.118,0,0,1,2.044-.909l3.105,6.991a1.12,1.12,0,0,1-.565,1.477,1.149,1.149,0,0,1-.456.1m-29.26,0a1.138,1.138,0,0,1-.458-.1,1.12,1.12,0,0,1-.562-1.479L265.089,18.7a3.672,3.672,0,0,1,3.348-2.214h8.8a1.118,1.118,0,1,1,0,2.236h-8.8a1.437,1.437,0,0,0-1.306.875l-5.575,12.446a1.119,1.119,0,0,1-1.021.66" transform="translate(528.618 443.186)" fill="#0c1834"/>
    <path id="Path_273616" data-name="Path 273616" d="M260.542,32.7a1.14,1.14,0,0,1-.453-.1,1.119,1.119,0,0,1-.567-1.477l3.107-6.991a1.119,1.119,0,0,1,2.045.909l-3.108,6.991a1.12,1.12,0,0,1-1.024.663m29.26,0a1.12,1.12,0,0,1-1.021-.66l-5.566-12.428a1.447,1.447,0,0,0-1.321-.893H273.1a1.118,1.118,0,0,1,0-2.236h8.8a3.678,3.678,0,0,1,3.359,2.233l5.56,12.409a1.12,1.12,0,0,1-.563,1.479,1.133,1.133,0,0,1-.458.1" transform="translate(528.618 443.186)" fill="#0c1834"/>
  </g>
</svg>
