<svg xmlns="http://www.w3.org/2000/svg" width="15.476" height="28.283" viewBox="0 0 15.476 28.283">
  <g id="Group_85035" data-name="Group 85035" transform="translate(-945.408 -455)">
    <path id="Path_273610" data-name="Path 273610" d="M395.752,44.056A6.757,6.757,0,0,1,389,37.312a6.476,6.476,0,0,1,2.04-4.721V20.278a4.683,4.683,0,0,1,9.358,0V32.591a6.477,6.477,0,0,1,2.04,4.721,6.724,6.724,0,0,1-6.687,6.744m0-26.6a3.179,3.179,0,0,0-3.036,2.824V32.967a.841.841,0,0,1-.3.646,4.8,4.8,0,0,0-1.737,3.7,5.038,5.038,0,0,0,10.075.153c0-.05,0-.1,0-.153a4.8,4.8,0,0,0-1.737-3.7.841.841,0,0,1-.3-.646V20.278a3.187,3.187,0,0,0-2.965-2.824Z" transform="translate(556.407 439.227)" fill="#0c1834"/>
    <path id="Path_273611" data-name="Path 273611" d="M394.786,33.975a.84.84,0,0,1-.839-.84V28.992a.84.84,0,1,1,1.68,0v4.146a.84.84,0,0,1-.84.84Z" transform="translate(557.235 441.301)" fill="#0c1834"/>
    <path id="Path_273612" data-name="Path 273612" d="M395.149,39.476a2.947,2.947,0,0,1-2.945-2.945,2.912,2.912,0,0,1,2.882-2.942h.063A2.848,2.848,0,0,1,398.03,36.4c0,.043,0,.086,0,.13a2.92,2.92,0,0,1-2.88,2.945m0-4.2a1.236,1.236,0,0,0-1.265,1.207v.055a1.283,1.283,0,0,0,1.265,1.262,1.22,1.22,0,0,0,1.2-1.239v-.026a1.183,1.183,0,0,0-1.1-1.261.982.982,0,0,0-.1,0Zm7.951-4.886h-4.01a.84.84,0,1,1,0-1.68H403.1a.84.84,0,0,1,0,1.68Zm0-3.867h-4.01a.84.84,0,1,1,0-1.68H403.1a.84.84,0,0,1,0,1.68Zm0-4.006h-4.01a.84.84,0,1,1,0-1.68H403.1a.84.84,0,0,1,0,1.68Z" transform="translate(556.943 440.074)" fill="#0c1834"/>
  </g>
</svg>
